<!DOCTYPE svg PUBLIC "-//W3C//DTD SVG 20010904//EN" "http://www.w3.org/TR/2001/REC-SVG-20010904/DTD/svg10.dtd">
<svg version="1.0" xmlns="http://www.w3.org/2000/svg" width="186px" height="88px" viewBox="0 0 1860 880" preserveAspectRatio="xMidYMid meet">
<g id="layer101" fill="#2ea338" stroke="none">
<path d="M30 849 c0 -11 407 -646 419 -653 3 -3 105 90 226 204 217 207 220 210 282 322 34 62 63 119 63 126 0 9 -106 12 -495 12 -346 0 -495 -3 -495 -11z"/>
<path d="M991 720 c-80 -134 -88 -144 -227 -272 -79 -73 -144 -137 -144 -142 0 -4 62 -71 138 -149 139 -140 139 -140 252 -13 63 69 118 126 123 126 5 0 27 -15 50 -33 125 -100 104 -106 211 66 52 84 97 160 100 168 3 8 -15 30 -47 55 -44 35 -65 64 -132 187 -80 147 -80 147 -160 147 -80 0 -80 0 -164 -140z"/>
<path d="M1285 850 c-3 -5 23 -65 57 -133 60 -118 68 -128 146 -196 46 -39 86 -71 90 -71 9 0 252 384 252 398 0 15 -536 17 -545 2z"/>
</g>
<g id="layer102" fill="#000000" stroke="none">
</g>
<g id="layer103" fill="#a25f1e" stroke="none">
<path d="M30 849 c0 -11 407 -646 419 -653 3 -3 105 90 226 204 217 207 220 210 282 322 34 62 63 119 63 126 0 9 -106 12 -495 12 -346 0 -495 -3 -495 -11z m419 -395 c22 -37 22 -37 45 -15 28 27 34 26 58 -4 11 -14 26 -25 34 -25 8 0 14 -4 14 -8 0 -6 -74 -95 -130 -156 -5 -4 -31 22 -58 60 -40 53 -48 72 -42 88 27 67 41 96 49 96 5 0 19 -16 30 -36z"/>
<path d="M991 720 c-80 -134 -88 -144 -227 -272 -79 -73 -144 -137 -144 -142 0 -4 62 -71 138 -149 139 -140 139 -140 257 -8 65 72 120 131 123 131 3 0 32 -24 66 -53 34 -29 68 -58 78 -65 14 -12 27 4 112 141 52 84 97 160 100 168 3 8 -15 30 -47 55 -44 35 -65 64 -132 187 -80 147 -80 147 -160 147 -80 0 -80 0 -164 -140z m134 -342 c6 -34 5 -38 -13 -38 -15 0 -32 -20 -61 -70 -43 -76 -140 -198 -156 -199 -6 -1 -59 48 -119 108 -108 109 -108 109 -70 145 22 19 44 36 50 36 6 0 19 -17 28 -37 9 -21 25 -49 36 -63 18 -24 18 -24 40 13 21 36 23 37 41 21 23 -21 22 -21 48 39 18 42 41 63 41 37 0 -29 32 -18 71 25 46 50 52 49 64 -17z m176 -77 c11 6 23 8 26 5 7 -7 -30 -96 -40 -96 -10 0 -127 91 -127 98 0 4 14 21 32 39 32 33 32 33 60 -12 25 -41 31 -44 49 -34z"/>
<path d="M1285 850 c-3 -5 23 -65 57 -133 60 -118 68 -128 146 -196 46 -39 86 -71 90 -71 9 0 252 384 252 398 0 15 -536 17 -545 2z m300 -250 c3 -11 15 -20 26 -20 23 0 23 -3 3 -43 -31 -61 -34 -62 -81 -15 -45 44 -52 58 -30 58 8 0 22 9 32 20 10 11 24 20 31 20 7 0 16 -9 19 -20z"/>
</g>


</svg>