<!DOCTYPE svg PUBLIC "-//W3C//DTD SVG 20010904//EN" "http://www.w3.org/TR/2001/REC-SVG-20010904/DTD/svg10.dtd">
<svg version="1.0" xmlns="http://www.w3.org/2000/svg" width="277px" height="295px" viewBox="0 0 2770 2950" preserveAspectRatio="xMidYMid meet">
<g id="layer101" fill="#21ac50" stroke="none">
 <path d="M1160 2893 c-362 -34 -545 -73 -683 -145 -63 -34 -123 -93 -133 -133 -5 -20 59 -149 325 -658 182 -348 331 -637 331 -643 0 -18 64 -73 110 -93 160 -70 471 -44 553 47 10 10 41 64 69 118 27 55 181 348 340 652 214 409 288 560 284 576 -24 96 -201 186 -461 235 -208 40 -562 61 -735 44z m605 -147 c208 -32 409 -99 438 -147 8 -13 -54 -139 -277 -565 -158 -301 -289 -550 -291 -552 -2 -2 -34 9 -72 24 -63 26 -78 28 -208 29 -121 0 -149 -3 -207 -23 -37 -13 -71 -28 -74 -33 -3 -6 -138 241 -298 548 -293 558 -293 558 -274 579 58 65 295 128 593 158 103 10 565 -2 670 -18z m-237 -1360 c24 -10 41 -24 39 -30 -2 -6 -28 -19 -58 -30 -110 -37 -374 -14 -374 34 0 9 21 21 55 32 75 24 275 20 338 -6z"/>
 <path d="M1017 1117 c-12 -8 -23 -39 -32 -85 -25 -128 -93 -220 -204 -277 -80 -40 -168 -46 -303 -20 -29 6 -40 3 -57 -14 -47 -47 -12 -101 80 -120 172 -37 345 14 469 139 76 77 115 150 137 256 15 73 15 77 -4 103 -23 30 -60 38 -86 18z"/>
 <path d="M1675 1118 c-11 -6 -23 -16 -27 -22 -21 -31 3 -159 48 -250 54 -110 160 -201 278 -238 47 -15 80 -19 146 -15 131 7 191 42 176 103 -10 39 -40 48 -107 34 -33 -7 -86 -10 -119 -7 -153 14 -274 138 -301 309 -13 84 -45 114 -94 86z"/>
 <path d="M167 1055 c-140 -49 -160 -245 -34 -320 97 -56 211 -21 258 80 24 51 23 89 0 142 -42 92 -132 131 -224 98z m97 -131 c40 -40 -7 -109 -59 -86 -32 15 -41 47 -21 77 19 29 57 33 80 9z"/>
 <path d="M1262 1063 c-23 -9 -39 -56 -98 -296 -55 -223 -58 -239 -44 -265 20 -35 68 -42 94 -13 20 22 135 463 136 518 0 46 -44 74 -88 56z"/>
 <path d="M1434 1002 c-6 -4 -16 -17 -23 -29 -9 -18 -6 -39 20 -120 17 -54 37 -108 45 -120 27 -43 114 -21 114 28 0 32 -71 225 -87 237 -19 13 -52 16 -69 4z"/>
 <path d="M2455 991 c-48 -22 -69 -44 -90 -94 -50 -120 34 -247 164 -247 135 0 223 139 162 258 -23 46 -46 67 -94 87 -48 20 -93 19 -142 -4z m122 -140 c14 -29 4 -55 -28 -71 -46 -25 -94 51 -57 88 21 21 71 10 85 -17z"/>
 <path d="M1504 634 c-70 -34 -108 -115 -94 -197 24 -131 187 -187 290 -101 82 69 86 199 8 271 -47 44 -143 57 -204 27z m114 -120 c26 -18 28 -50 5 -76 -20 -22 -51 -23 -75 -1 -24 21 -23 48 2 73 24 24 38 25 68 4z"/>
 <path d="M418 470 c-129 -39 -176 -189 -92 -290 37 -43 75 -60 134 -60 102 0 170 59 178 155 6 69 -11 117 -53 154 -50 43 -110 58 -167 41z m88 -145 c33 -50 -20 -104 -71 -71 -29 19 -32 51 -8 78 23 26 59 23 79 -7z"/>
 <path d="M995 407 c-90 -35 -139 -127 -115 -216 22 -82 88 -131 175 -131 122 0 200 104 169 225 -25 99 -136 158 -229 122z m100 -137 c23 -25 13 -67 -20 -82 -52 -23 -100 46 -59 86 21 22 57 20 79 -4z"/>
 <path d="M1985 402 c-73 -35 -105 -87 -105 -169 0 -94 79 -173 173 -173 82 0 135 33 168 105 24 53 24 99 -2 153 -41 84 -150 124 -234 84z m109 -128 c40 -40 -7 -109 -59 -86 -32 15 -41 47 -21 77 19 29 57 33 80 9z"/>
 </g>

</svg>